<?xml version="1.0" encoding="UTF-8" standalone="no"?>
<!DOCTYPE svg PUBLIC "-//W3C//DTD SVG 1.1//EN"
 "http://www.w3.org/Graphics/SVG/1.1/DTD/svg11.dtd">
<!-- Generated by graphviz version 2.38.0 (20140413.2041)
 -->
<!-- Title: config Pages: 1 -->
<svg width="272pt" height="392pt"
 viewBox="0.00 0.00 272.00 392.00" xmlns="http://www.w3.org/2000/svg" xmlns:xlink="http://www.w3.org/1999/xlink">
<g id="graph0" class="graph" transform="scale(1 1) rotate(0) translate(4 388)">
<title>config</title>
<polygon fill="white" stroke="none" points="-4,4 -4,-388 268,-388 268,4 -4,4"/>
<!-- ObsConfig -->
<g id="node1" class="node"><title>ObsConfig</title>
<polygon fill="#1874cd" stroke="black" points="121.5,-347.5 121.5,-383.5 185.5,-383.5 185.5,-347.5 121.5,-347.5"/>
<text text-anchor="middle" x="153.5" y="-363" font-family="Helvetica Neue, Helvetica, Arial, sans-serif" font-size="10.00" fill="white">ObsConfig</text>
</g>
<!-- SubarrayConfig -->
<g id="node2" class="node"><title>SubarrayConfig</title>
<polygon fill="#1874cd" stroke="black" points="46.5,-263.5 46.5,-299.5 132.5,-299.5 132.5,-263.5 46.5,-263.5"/>
<text text-anchor="middle" x="89.5" y="-279" font-family="Helvetica Neue, Helvetica, Arial, sans-serif" font-size="10.00" fill="white">SubarrayConfig</text>
</g>
<!-- ObsConfig&#45;&gt;SubarrayConfig -->
<g id="edge1" class="edge"><title>ObsConfig&#45;&gt;SubarrayConfig</title>
<path fill="none" stroke="black" d="M133.662,-339.083C123.641,-326.243 111.751,-311.009 102.834,-299.584"/>
<polygon fill="black" stroke="black" points="131.015,-341.38 139.927,-347.11 136.534,-337.073 131.015,-341.38"/>
<text text-anchor="middle" x="139.5" y="-321" font-family="Helvetica Neue, Helvetica, Arial, sans-serif" font-size="10.00">run_id</text>
</g>
<!-- ArrayTriggerConfig -->
<g id="node3" class="node"><title>ArrayTriggerConfig</title>
<polygon fill="#8b6914" stroke="black" points="152,-263.5 152,-299.5 253,-299.5 253,-263.5 152,-263.5"/>
<text text-anchor="middle" x="202.5" y="-279" font-family="Helvetica Neue, Helvetica, Arial, sans-serif" font-size="10.00" fill="white">ArrayTriggerConfig</text>
</g>
<!-- ObsConfig&#45;&gt;ArrayTriggerConfig -->
<g id="edge2" class="edge"><title>ObsConfig&#45;&gt;ArrayTriggerConfig</title>
<path fill="none" stroke="black" d="M169.128,-338.346C176.707,-325.664 185.594,-310.791 192.291,-299.584"/>
<polygon fill="black" stroke="black" points="166.017,-336.73 163.892,-347.11 172.026,-340.321 166.017,-336.73"/>
<text text-anchor="middle" x="201" y="-321" font-family="Helvetica Neue, Helvetica, Arial, sans-serif" font-size="10.00">run_type</text>
</g>
<!-- ArrayConfig -->
<g id="node5" class="node"><title>ArrayConfig</title>
<polygon fill="none" stroke="black" points="54,-168.5 54,-204.5 123,-204.5 123,-168.5 54,-168.5"/>
<text text-anchor="middle" x="88.5" y="-184" font-family="Helvetica Neue, Helvetica, Arial, sans-serif" font-size="10.00">ArrayConfig</text>
</g>
<!-- SubarrayConfig&#45;&gt;ArrayConfig -->
<g id="edge4" class="edge"><title>SubarrayConfig&#45;&gt;ArrayConfig</title>
<path fill="none" stroke="black" d="M89.2072,-253.27C89.0387,-237.595 88.8319,-218.37 88.6856,-204.764"/>
<polygon fill="black" stroke="black" points="85.7092,-253.481 89.3166,-263.442 92.7088,-253.405 85.7092,-253.481"/>
<text text-anchor="middle" x="106" y="-237" font-family="Helvetica Neue, Helvetica, Arial, sans-serif" font-size="10.00">site_id,</text>
<text text-anchor="middle" x="106" y="-226" font-family="Helvetica Neue, Helvetica, Arial, sans-serif" font-size="10.00">version</text>
</g>
<!-- TelescopeTriggerConfig -->
<g id="node4" class="node"><title>TelescopeTriggerConfig</title>
<polygon fill="#8b6914" stroke="black" points="141,-168.5 141,-204.5 264,-204.5 264,-168.5 141,-168.5"/>
<text text-anchor="middle" x="202.5" y="-184" font-family="Helvetica Neue, Helvetica, Arial, sans-serif" font-size="10.00" fill="white">TelescopeTriggerConfig</text>
</g>
<!-- ArrayTriggerConfig&#45;&gt;TelescopeTriggerConfig -->
<g id="edge3" class="edge"><title>ArrayTriggerConfig&#45;&gt;TelescopeTriggerConfig</title>
<path fill="none" stroke="black" d="M202.5,-253.27C202.5,-237.595 202.5,-218.37 202.5,-204.764"/>
<polygon fill="black" stroke="black" points="199,-253.442 202.5,-263.442 206,-253.442 199,-253.442"/>
<text text-anchor="middle" x="223.5" y="-237" font-family="Helvetica Neue, Helvetica, Arial, sans-serif" font-size="10.00">run_type,</text>
<text text-anchor="middle" x="223.5" y="-226" font-family="Helvetica Neue, Helvetica, Arial, sans-serif" font-size="10.00">tel_id</text>
</g>
<!-- TelescopeConfig -->
<g id="node6" class="node"><title>TelescopeConfig</title>
<polygon fill="none" stroke="black" points="42.5,-84.5 42.5,-120.5 134.5,-120.5 134.5,-84.5 42.5,-84.5"/>
<text text-anchor="middle" x="88.5" y="-100" font-family="Helvetica Neue, Helvetica, Arial, sans-serif" font-size="10.00">TelescopeConfig</text>
</g>
<!-- ArrayConfig&#45;&gt;TelescopeConfig -->
<g id="edge5" class="edge"><title>ArrayConfig&#45;&gt;TelescopeConfig</title>
<path fill="none" stroke="black" d="M88.5,-157.859C88.5,-145.515 88.5,-131.356 88.5,-120.584"/>
<polygon fill="black" stroke="black" points="85.0001,-158.11 88.5,-168.11 92.0001,-158.11 85.0001,-158.11"/>
<text text-anchor="middle" x="100.5" y="-142" font-family="Helvetica Neue, Helvetica, Arial, sans-serif" font-size="10.00">tel_id</text>
</g>
<!-- CameraConfig -->
<g id="node7" class="node"><title>CameraConfig</title>
<polygon fill="none" stroke="black" points="0,-0.5 0,-36.5 81,-36.5 81,-0.5 0,-0.5"/>
<text text-anchor="middle" x="40.5" y="-16" font-family="Helvetica Neue, Helvetica, Arial, sans-serif" font-size="10.00">CameraConfig</text>
</g>
<!-- TelescopeConfig&#45;&gt;CameraConfig -->
<g id="edge6" class="edge"><title>TelescopeConfig&#45;&gt;CameraConfig</title>
<path fill="none" stroke="black" d="M73.1906,-75.3464C65.7669,-62.6643 57.0607,-47.7912 50.5003,-36.5838"/>
<polygon fill="black" stroke="black" points="70.248,-77.2479 78.3204,-84.1099 76.2891,-73.7116 70.248,-77.2479"/>
<text text-anchor="middle" x="79.5" y="-58" font-family="Helvetica Neue, Helvetica, Arial, sans-serif" font-size="10.00">tel_id</text>
</g>
<!-- OpticsConfig -->
<g id="node8" class="node"><title>OpticsConfig</title>
<polygon fill="none" stroke="black" points="99.5,-0.5 99.5,-36.5 173.5,-36.5 173.5,-0.5 99.5,-0.5"/>
<text text-anchor="middle" x="136.5" y="-16" font-family="Helvetica Neue, Helvetica, Arial, sans-serif" font-size="10.00">OpticsConfig</text>
</g>
<!-- TelescopeConfig&#45;&gt;OpticsConfig -->
<g id="edge7" class="edge"><title>TelescopeConfig&#45;&gt;OpticsConfig</title>
<path fill="none" stroke="black" d="M103.809,-75.3464C111.233,-62.6643 119.939,-47.7912 126.5,-36.5838"/>
<polygon fill="black" stroke="black" points="100.711,-73.7116 98.6796,-84.1099 106.752,-77.2479 100.711,-73.7116"/>
<text text-anchor="middle" x="127.5" y="-58" font-family="Helvetica Neue, Helvetica, Arial, sans-serif" font-size="10.00">tel_id</text>
</g>
</g>
</svg>
