<?xml version="1.0" encoding="UTF-8" standalone="no"?>
<!DOCTYPE svg PUBLIC "-//W3C//DTD SVG 1.1//EN"
 "http://www.w3.org/Graphics/SVG/1.1/DTD/svg11.dtd">
<!-- Generated by graphviz version 2.38.0 (20140413.2041)
 -->
<!-- Title: config Pages: 1 -->
<svg width="313pt" height="392pt"
 viewBox="0.00 0.00 312.50 392.00" xmlns="http://www.w3.org/2000/svg" xmlns:xlink="http://www.w3.org/1999/xlink">
<g id="graph0" class="graph" transform="scale(1 1) rotate(0) translate(4 388)">
<title>config</title>
<polygon fill="white" stroke="none" points="-4,4 -4,-388 308.5,-388 308.5,4 -4,4"/>
<!-- ObsConfig -->
<g id="node1" class="node"><title>ObsConfig</title>
<polygon fill="#1874cd" stroke="black" points="140.5,-347.5 140.5,-383.5 213.5,-383.5 213.5,-347.5 140.5,-347.5"/>
<text text-anchor="middle" x="177" y="-362.4" font-family="Arial" font-size="12.00" fill="white">ObsConfig</text>
</g>
<!-- SubarrayConfig -->
<g id="node2" class="node"><title>SubarrayConfig</title>
<polygon fill="#1874cd" stroke="black" points="53,-263.5 53,-299.5 153,-299.5 153,-263.5 53,-263.5"/>
<text text-anchor="middle" x="103" y="-278.4" font-family="Arial" font-size="12.00" fill="white">SubarrayConfig</text>
</g>
<!-- ObsConfig&#45;&gt;SubarrayConfig -->
<g id="edge1" class="edge"><title>ObsConfig&#45;&gt;SubarrayConfig</title>
<path fill="none" stroke="black" d="M154.393,-339.449C142.738,-326.534 128.826,-311.118 118.417,-299.584"/>
<polygon fill="black" stroke="black" points="152.008,-342.031 161.307,-347.11 157.205,-337.341 152.008,-342.031"/>
<text text-anchor="middle" x="159" y="-321" font-family="Arial" font-size="10.00">run_id</text>
</g>
<!-- ArrayTriggerConfig -->
<g id="node3" class="node"><title>ArrayTriggerConfig</title>
<polygon fill="#8b6914" stroke="black" points="173,-263.5 173,-299.5 291,-299.5 291,-263.5 173,-263.5"/>
<text text-anchor="middle" x="232" y="-278.4" font-family="Arial" font-size="12.00" fill="white">ArrayTriggerConfig</text>
</g>
<!-- ObsConfig&#45;&gt;ArrayTriggerConfig -->
<g id="edge2" class="edge"><title>ObsConfig&#45;&gt;ArrayTriggerConfig</title>
<path fill="none" stroke="black" d="M194.295,-338.715C202.854,-325.953 212.951,-310.9 220.541,-299.584"/>
<polygon fill="black" stroke="black" points="191.328,-336.855 188.664,-347.11 197.141,-340.755 191.328,-336.855"/>
<text text-anchor="middle" x="227.5" y="-321" font-family="Arial" font-size="10.00">run_type</text>
</g>
<!-- ArrayConfig -->
<g id="node5" class="node"><title>ArrayConfig</title>
<polygon fill="none" stroke="black" points="61,-168.5 61,-204.5 141,-204.5 141,-168.5 61,-168.5"/>
<text text-anchor="middle" x="101" y="-183.4" font-family="Arial" font-size="12.00">ArrayConfig</text>
</g>
<!-- SubarrayConfig&#45;&gt;ArrayConfig -->
<g id="edge4" class="edge"><title>SubarrayConfig&#45;&gt;ArrayConfig</title>
<path fill="none" stroke="black" d="M102.414,-253.27C102.077,-237.595 101.664,-218.37 101.371,-204.764"/>
<polygon fill="black" stroke="black" points="98.9189,-253.52 102.633,-263.442 105.917,-253.369 98.9189,-253.52"/>
<text text-anchor="middle" x="119.5" y="-237" font-family="Arial" font-size="10.00">site_id,</text>
<text text-anchor="middle" x="119.5" y="-226" font-family="Arial" font-size="10.00">version</text>
</g>
<!-- TelescopeTriggerConfig -->
<g id="node4" class="node"><title>TelescopeTriggerConfig</title>
<polygon fill="#8b6914" stroke="black" points="159.5,-168.5 159.5,-204.5 304.5,-204.5 304.5,-168.5 159.5,-168.5"/>
<text text-anchor="middle" x="232" y="-183.4" font-family="Arial" font-size="12.00" fill="white">TelescopeTriggerConfig</text>
</g>
<!-- ArrayTriggerConfig&#45;&gt;TelescopeTriggerConfig -->
<g id="edge3" class="edge"><title>ArrayTriggerConfig&#45;&gt;TelescopeTriggerConfig</title>
<path fill="none" stroke="black" d="M232,-253.27C232,-237.595 232,-218.37 232,-204.764"/>
<polygon fill="black" stroke="black" points="228.5,-253.442 232,-263.442 235.5,-253.442 228.5,-253.442"/>
<text text-anchor="middle" x="253" y="-237" font-family="Arial" font-size="10.00">run_type,</text>
<text text-anchor="middle" x="253" y="-226" font-family="Arial" font-size="10.00">tel_id</text>
</g>
<!-- TelescopeConfig -->
<g id="node6" class="node"><title>TelescopeConfig</title>
<polygon fill="none" stroke="black" points="47.5,-84.5 47.5,-120.5 154.5,-120.5 154.5,-84.5 47.5,-84.5"/>
<text text-anchor="middle" x="101" y="-99.4" font-family="Arial" font-size="12.00">TelescopeConfig</text>
</g>
<!-- ArrayConfig&#45;&gt;TelescopeConfig -->
<g id="edge5" class="edge"><title>ArrayConfig&#45;&gt;TelescopeConfig</title>
<path fill="none" stroke="black" d="M101,-157.859C101,-145.515 101,-131.356 101,-120.584"/>
<polygon fill="black" stroke="black" points="97.5001,-158.11 101,-168.11 104.5,-158.11 97.5001,-158.11"/>
<text text-anchor="middle" x="113" y="-142" font-family="Arial" font-size="10.00">tel_id</text>
</g>
<!-- CameraConfig -->
<g id="node7" class="node"><title>CameraConfig</title>
<polygon fill="none" stroke="black" points="0,-0.5 0,-36.5 94,-36.5 94,-0.5 0,-0.5"/>
<text text-anchor="middle" x="47" y="-15.4" font-family="Arial" font-size="12.00">CameraConfig</text>
</g>
<!-- TelescopeConfig&#45;&gt;CameraConfig -->
<g id="edge6" class="edge"><title>TelescopeConfig&#45;&gt;CameraConfig</title>
<path fill="none" stroke="black" d="M84.0197,-75.7151C75.6157,-62.9534 65.7024,-47.9 58.2503,-36.5838"/>
<polygon fill="black" stroke="black" points="81.1249,-77.6832 89.548,-84.1099 86.9711,-73.8332 81.1249,-77.6832"/>
<text text-anchor="middle" x="90" y="-58" font-family="Arial" font-size="10.00">tel_id</text>
</g>
<!-- OpticsConfig -->
<g id="node8" class="node"><title>OpticsConfig</title>
<polygon fill="none" stroke="black" points="112.5,-0.5 112.5,-36.5 197.5,-36.5 197.5,-0.5 112.5,-0.5"/>
<text text-anchor="middle" x="155" y="-15.4" font-family="Arial" font-size="12.00">OpticsConfig</text>
</g>
<!-- TelescopeConfig&#45;&gt;OpticsConfig -->
<g id="edge7" class="edge"><title>TelescopeConfig&#45;&gt;OpticsConfig</title>
<path fill="none" stroke="black" d="M117.98,-75.7151C126.384,-62.9534 136.298,-47.9 143.75,-36.5838"/>
<polygon fill="black" stroke="black" points="115.029,-73.8332 112.452,-84.1099 120.875,-77.6832 115.029,-73.8332"/>
<text text-anchor="middle" x="144" y="-58" font-family="Arial" font-size="10.00">tel_id</text>
</g>
</g>
</svg>
