<?xml version="1.0" encoding="UTF-8" standalone="no"?>
<!DOCTYPE svg PUBLIC "-//W3C//DTD SVG 1.1//EN"
 "http://www.w3.org/Graphics/SVG/1.1/DTD/svg11.dtd">
<!-- Generated by graphviz version 2.38.0 (20140413.2041)
 -->
<!-- Title: inheritance781124ae0e Pages: 1 -->
<svg width="365pt" height="101pt"
 viewBox="0.00 0.00 365.00 101.00" xmlns="http://www.w3.org/2000/svg" xmlns:xlink="http://www.w3.org/1999/xlink">
<g id="graph0" class="graph" transform="scale(1 1) rotate(0) translate(4 97)">
<title>inheritance781124ae0e</title>
<polygon fill="white" stroke="none" points="-4,4 -4,-97 361,-97 361,4 -4,4"/>
<!-- ArgumentParser -->
<g id="node1" class="node"><title>ArgumentParser</title>
<g id="a_node1"><a xlink:title="Object for parsing command line strings into Python objects.">
<polygon fill="none" stroke="black" stroke-width="0.5" points="245,-37 156,-37 156,-18 245,-18 245,-37"/>
<text text-anchor="middle" x="200.5" y="-25" font-family="Vera Sans, DejaVu Sans, Liberation Sans, Arial, Helvetica, sans" font-size="10.00">ArgumentParser</text>
</a>
</g>
</g>
<!-- Configuration -->
<g id="node4" class="node"><title>Configuration</title>
<g id="a_node4"><a xlink:href="../api/ctapipe.configuration.Configuration.html#ctapipe.configuration.Configuration" xlink:title="Configuration initialization if other is not None and its type is">
<polygon fill="none" stroke="black" stroke-width="0.5" points="357,-37 281,-37 281,-18 357,-18 357,-37"/>
<text text-anchor="middle" x="319" y="-25" font-family="Vera Sans, DejaVu Sans, Liberation Sans, Arial, Helvetica, sans" font-size="10.00">Configuration</text>
</a>
</g>
</g>
<!-- ArgumentParser&#45;&gt;Configuration -->
<g id="edge3" class="edge"><title>ArgumentParser&#45;&gt;Configuration</title>
<path fill="none" stroke="black" stroke-width="0.5" d="M245.212,-27.5C255.218,-27.5 265.836,-27.5 275.779,-27.5"/>
<polygon fill="black" stroke="black" stroke-width="0.5" points="275.91,-29.2501 280.91,-27.5 275.91,-25.7501 275.91,-29.2501"/>
</g>
<!-- _AttributeHolder -->
<g id="node2" class="node"><title>_AttributeHolder</title>
<g id="a_node2"><a xlink:title="Abstract base class that provides __repr__.">
<polygon fill="none" stroke="black" stroke-width="0.5" points="104.5,-56 15.5,-56 15.5,-37 104.5,-37 104.5,-56"/>
<text text-anchor="middle" x="60" y="-44" font-family="Vera Sans, DejaVu Sans, Liberation Sans, Arial, Helvetica, sans" font-size="10.00">_AttributeHolder</text>
</a>
</g>
</g>
<!-- _AttributeHolder&#45;&gt;ArgumentParser -->
<g id="edge1" class="edge"><title>_AttributeHolder&#45;&gt;ArgumentParser</title>
<path fill="none" stroke="black" stroke-width="0.5" d="M104.822,-40.4883C119.49,-38.4761 135.925,-36.2215 150.932,-34.1627"/>
<polygon fill="black" stroke="black" stroke-width="0.5" points="151.247,-35.886 155.963,-33.4726 150.771,-32.4185 151.247,-35.886"/>
</g>
<!-- _ActionsContainer -->
<g id="node3" class="node"><title>_ActionsContainer</title>
<polygon fill="none" stroke="black" stroke-width="0.5" points="109,-19 11,-19 11,-0 109,-0 109,-19"/>
<text text-anchor="middle" x="60" y="-7" font-family="Vera Sans, DejaVu Sans, Liberation Sans, Arial, Helvetica, sans" font-size="10.00">_ActionsContainer</text>
</g>
<!-- _ActionsContainer&#45;&gt;ArgumentParser -->
<g id="edge2" class="edge"><title>_ActionsContainer&#45;&gt;ArgumentParser</title>
<path fill="none" stroke="black" stroke-width="0.5" d="M109.052,-15.745C122.433,-17.484 136.982,-19.3749 150.421,-21.1215"/>
<polygon fill="black" stroke="black" stroke-width="0.5" points="150.525,-22.8997 155.709,-21.8087 150.976,-19.4289 150.525,-22.8997"/>
</g>
<!-- ConfigurationException -->
<g id="node5" class="node"><title>ConfigurationException</title>
<g id="a_node5"><a xlink:href="../api/ctapipe.configuration.ConfigurationException.html#ctapipe.configuration.ConfigurationException" xlink:title="ConfigurationException">
<polygon fill="none" stroke="black" stroke-width="0.5" points="120,-93 0,-93 0,-74 120,-74 120,-93"/>
<text text-anchor="middle" x="60" y="-81" font-family="Vera Sans, DejaVu Sans, Liberation Sans, Arial, Helvetica, sans" font-size="10.00">ConfigurationException</text>
</a>
</g>
</g>
</g>
</svg>
