<?xml version="1.0" encoding="UTF-8" standalone="no"?>
<!DOCTYPE svg PUBLIC "-//W3C//DTD SVG 1.1//EN"
 "http://www.w3.org/Graphics/SVG/1.1/DTD/svg11.dtd">
<!-- Generated by graphviz version 2.38.0 (20140413.2041)
 -->
<!-- Title: inheritance9fa7e0dc8f Pages: 1 -->
<svg width="321pt" height="249pt"
 viewBox="0.00 0.00 321.00 249.00" xmlns="http://www.w3.org/2000/svg" xmlns:xlink="http://www.w3.org/1999/xlink">
<g id="graph0" class="graph" transform="scale(1 1) rotate(0) translate(4 245)">
<title>inheritance9fa7e0dc8f</title>
<polygon fill="white" stroke="none" points="-4,4 -4,-245 317,-245 317,4 -4,4"/>
<!-- ArrayConfig -->
<g id="node1" class="node"><title>ArrayConfig</title>
<g id="a_node1"><a xlink:href="../api/ctapipe.io.obsconfig.ArrayConfig.html#ctapipe.io.obsconfig.ArrayConfig" xlink:title="Overall description of an array (including all telescope that are">
<polygon fill="none" stroke="black" stroke-width="0.5" points="184.5,-241 115.5,-241 115.5,-222 184.5,-222 184.5,-241"/>
<text text-anchor="middle" x="150" y="-229" font-family="Vera Sans, DejaVu Sans, Liberation Sans, Arial, Helvetica, sans" font-size="10.00">ArrayConfig</text>
</a>
</g>
</g>
<!-- BaseConfig -->
<g id="node2" class="node"><title>BaseConfig</title>
<g id="a_node2"><a xlink:href="../api/ctapipe.io.obsconfig.BaseConfig.html#ctapipe.io.obsconfig.BaseConfig" xlink:title="BaseConfig">
<polygon fill="none" stroke="black" stroke-width="0.5" points="68,-130 0,-130 0,-111 68,-111 68,-130"/>
<text text-anchor="middle" x="34" y="-118" font-family="Vera Sans, DejaVu Sans, Liberation Sans, Arial, Helvetica, sans" font-size="10.00">BaseConfig</text>
</a>
</g>
</g>
<!-- BaseConfig&#45;&gt;ArrayConfig -->
<g id="edge1" class="edge"><title>BaseConfig&#45;&gt;ArrayConfig</title>
<path fill="none" stroke="black" stroke-width="0.5" d="M39.7447,-130.034C49.4097,-148.561 73.1045,-189.695 104,-213.5 106.933,-215.76 110.187,-217.774 113.565,-219.561"/>
<polygon fill="black" stroke="black" stroke-width="0.5" points="112.971,-221.22 118.23,-221.859 114.517,-218.08 112.971,-221.22"/>
</g>
<!-- CameraConfig -->
<g id="node3" class="node"><title>CameraConfig</title>
<g id="a_node3"><a xlink:href="../api/ctapipe.io.obsconfig.CameraConfig.html#ctapipe.io.obsconfig.CameraConfig" xlink:title="Definition of a Camera, including its pixel geometry and other">
<polygon fill="none" stroke="black" stroke-width="0.5" points="190.5,-204 109.5,-204 109.5,-185 190.5,-185 190.5,-204"/>
<text text-anchor="middle" x="150" y="-192" font-family="Vera Sans, DejaVu Sans, Liberation Sans, Arial, Helvetica, sans" font-size="10.00">CameraConfig</text>
</a>
</g>
</g>
<!-- BaseConfig&#45;&gt;CameraConfig -->
<g id="edge2" class="edge"><title>BaseConfig&#45;&gt;CameraConfig</title>
<path fill="none" stroke="black" stroke-width="0.5" d="M45.0213,-130.29C57.8371,-142.4 81.1198,-163.059 104,-176.5 107.943,-178.816 112.239,-180.96 116.562,-182.9"/>
<polygon fill="black" stroke="black" stroke-width="0.5" points="115.963,-184.548 121.247,-184.925 117.351,-181.335 115.963,-184.548"/>
</g>
<!-- ObsConfig -->
<g id="node4" class="node"><title>ObsConfig</title>
<g id="a_node4"><a xlink:href="../api/ctapipe.io.obsconfig.ObsConfig.html#ctapipe.io.obsconfig.ObsConfig" xlink:title="All configuration information related to an observarion run">
<polygon fill="none" stroke="black" stroke-width="0.5" points="182,-167 118,-167 118,-148 182,-148 182,-167"/>
<text text-anchor="middle" x="150" y="-155" font-family="Vera Sans, DejaVu Sans, Liberation Sans, Arial, Helvetica, sans" font-size="10.00">ObsConfig</text>
</a>
</g>
</g>
<!-- BaseConfig&#45;&gt;ObsConfig -->
<g id="edge3" class="edge"><title>BaseConfig&#45;&gt;ObsConfig</title>
<path fill="none" stroke="black" stroke-width="0.5" d="M64.3578,-130.028C79.6632,-134.996 98.477,-141.102 114.477,-146.295"/>
<polygon fill="black" stroke="black" stroke-width="0.5" points="114.049,-147.996 119.345,-147.875 115.13,-144.667 114.049,-147.996"/>
</g>
<!-- OpticsConfig -->
<g id="node5" class="node"><title>OpticsConfig</title>
<g id="a_node5"><a xlink:href="../api/ctapipe.io.obsconfig.OpticsConfig.html#ctapipe.io.obsconfig.OpticsConfig" xlink:title="Definition of Telescope Optics, including information on the">
<polygon fill="none" stroke="black" stroke-width="0.5" points="187,-130 113,-130 113,-111 187,-111 187,-130"/>
<text text-anchor="middle" x="150" y="-118" font-family="Vera Sans, DejaVu Sans, Liberation Sans, Arial, Helvetica, sans" font-size="10.00">OpticsConfig</text>
</a>
</g>
</g>
<!-- BaseConfig&#45;&gt;OpticsConfig -->
<g id="edge4" class="edge"><title>BaseConfig&#45;&gt;OpticsConfig</title>
<path fill="none" stroke="black" stroke-width="0.5" d="M68.28,-120.5C80.5799,-120.5 94.6733,-120.5 107.606,-120.5"/>
<polygon fill="black" stroke="black" stroke-width="0.5" points="107.687,-122.25 112.687,-120.5 107.687,-118.75 107.687,-122.25"/>
</g>
<!-- SubarrayConfig -->
<g id="node7" class="node"><title>SubarrayConfig</title>
<g id="a_node7"><a xlink:href="../api/ctapipe.io.obsconfig.SubarrayConfig.html#ctapipe.io.obsconfig.SubarrayConfig" xlink:title="Description of a particular Subarray used during an observation or">
<polygon fill="none" stroke="black" stroke-width="0.5" points="193,-93 107,-93 107,-74 193,-74 193,-93"/>
<text text-anchor="middle" x="150" y="-81" font-family="Vera Sans, DejaVu Sans, Liberation Sans, Arial, Helvetica, sans" font-size="10.00">SubarrayConfig</text>
</a>
</g>
</g>
<!-- BaseConfig&#45;&gt;SubarrayConfig -->
<g id="edge6" class="edge"><title>BaseConfig&#45;&gt;SubarrayConfig</title>
<path fill="none" stroke="black" stroke-width="0.5" d="M64.3578,-110.972C79.6632,-106.004 98.477,-99.8978 114.477,-94.7048"/>
<polygon fill="black" stroke="black" stroke-width="0.5" points="115.13,-96.3329 119.345,-93.1247 114.049,-93.0038 115.13,-96.3329"/>
</g>
<!-- TelescopeConfig -->
<g id="node8" class="node"><title>TelescopeConfig</title>
<g id="a_node8"><a xlink:href="../api/ctapipe.io.obsconfig.TelescopeConfig.html#ctapipe.io.obsconfig.TelescopeConfig" xlink:title="Configuration of a single Telescope, including it&#39;s optics and">
<polygon fill="none" stroke="black" stroke-width="0.5" points="196,-56 104,-56 104,-37 196,-37 196,-56"/>
<text text-anchor="middle" x="150" y="-44" font-family="Vera Sans, DejaVu Sans, Liberation Sans, Arial, Helvetica, sans" font-size="10.00">TelescopeConfig</text>
</a>
</g>
</g>
<!-- BaseConfig&#45;&gt;TelescopeConfig -->
<g id="edge7" class="edge"><title>BaseConfig&#45;&gt;TelescopeConfig</title>
<path fill="none" stroke="black" stroke-width="0.5" d="M45.0956,-110.969C57.9879,-99.1623 81.3496,-78.9619 104,-65.5 108.374,-62.9004 113.17,-60.4756 117.949,-58.2866"/>
<polygon fill="black" stroke="black" stroke-width="0.5" points="118.844,-59.804 122.707,-56.1784 117.426,-56.6041 118.844,-59.804"/>
</g>
<!-- TriggerConfig -->
<g id="node9" class="node"><title>TriggerConfig</title>
<g id="a_node9"><a xlink:href="../api/ctapipe.io.obsconfig.TriggerConfig.html#ctapipe.io.obsconfig.TriggerConfig" xlink:title="Contains trigger info for a given run_id">
<polygon fill="none" stroke="black" stroke-width="0.5" points="188.5,-19 111.5,-19 111.5,-0 188.5,-0 188.5,-19"/>
<text text-anchor="middle" x="150" y="-7" font-family="Vera Sans, DejaVu Sans, Liberation Sans, Arial, Helvetica, sans" font-size="10.00">TriggerConfig</text>
</a>
</g>
</g>
<!-- BaseConfig&#45;&gt;TriggerConfig -->
<g id="edge8" class="edge"><title>BaseConfig&#45;&gt;TriggerConfig</title>
<path fill="none" stroke="black" stroke-width="0.5" d="M39.9636,-110.838C49.8393,-92.4695 73.6399,-52.2287 104,-28.5 107.458,-25.7975 111.356,-23.4112 115.376,-21.3237"/>
<polygon fill="black" stroke="black" stroke-width="0.5" points="116.402,-22.7709 120.132,-19.0093 114.871,-19.6237 116.402,-22.7709"/>
</g>
<!-- SimObsConfig -->
<g id="node6" class="node"><title>SimObsConfig</title>
<g id="a_node6"><a xlink:href="../api/ctapipe.io.obsconfig.SimObsConfig.html#ctapipe.io.obsconfig.SimObsConfig" xlink:title="ObsConfig from a simulation run">
<polygon fill="none" stroke="black" stroke-width="0.5" points="313,-167 232,-167 232,-148 313,-148 313,-167"/>
<text text-anchor="middle" x="272.5" y="-155" font-family="Vera Sans, DejaVu Sans, Liberation Sans, Arial, Helvetica, sans" font-size="10.00">SimObsConfig</text>
</a>
</g>
</g>
<!-- ObsConfig&#45;&gt;SimObsConfig -->
<g id="edge5" class="edge"><title>ObsConfig&#45;&gt;SimObsConfig</title>
<path fill="none" stroke="black" stroke-width="0.5" d="M182.032,-157.5C195.69,-157.5 211.991,-157.5 226.914,-157.5"/>
<polygon fill="black" stroke="black" stroke-width="0.5" points="226.916,-159.25 231.916,-157.5 226.916,-155.75 226.916,-159.25"/>
</g>
</g>
</svg>
