<?xml version="1.0" encoding="UTF-8" standalone="no"?>
<!DOCTYPE svg PUBLIC "-//W3C//DTD SVG 1.1//EN"
 "http://www.w3.org/Graphics/SVG/1.1/DTD/svg11.dtd">
<!-- Generated by graphviz version 2.38.0 (20140413.2041)
 -->
<!-- Title: inheritanced7aba0998e Pages: 1 -->
<svg width="352pt" height="286pt"
 viewBox="0.00 0.00 352.00 286.00" xmlns="http://www.w3.org/2000/svg" xmlns:xlink="http://www.w3.org/1999/xlink">
<g id="graph0" class="graph" transform="scale(1 1) rotate(0) translate(4 282)">
<title>inheritanced7aba0998e</title>
<polygon fill="white" stroke="none" points="-4,4 -4,-282 348,-282 348,4 -4,4"/>
<!-- ArrayConfig -->
<g id="node1" class="node"><title>ArrayConfig</title>
<g id="a_node1"><a xlink:href="../api/ctapipe.instrument.obsconfig.ArrayConfig.html#ctapipe.instrument.obsconfig.ArrayConfig" xlink:title="Overall description of an array (including all telescope that are">
<polygon fill="none" stroke="black" stroke-width="0.5" points="200,-278 131,-278 131,-259 200,-259 200,-278"/>
<text text-anchor="middle" x="165.5" y="-266" font-family="Vera Sans, DejaVu Sans, Liberation Sans, Arial, Helvetica, sans" font-size="10.00">ArrayConfig</text>
</a>
</g>
</g>
<!-- BaseConfig -->
<g id="node2" class="node"><title>BaseConfig</title>
<g id="a_node2"><a xlink:href="../api/ctapipe.instrument.obsconfig.BaseConfig.html#ctapipe.instrument.obsconfig.BaseConfig" xlink:title="BaseConfig">
<polygon fill="none" stroke="black" stroke-width="0.5" points="68,-148 0,-148 0,-129 68,-129 68,-148"/>
<text text-anchor="middle" x="34" y="-136" font-family="Vera Sans, DejaVu Sans, Liberation Sans, Arial, Helvetica, sans" font-size="10.00">BaseConfig</text>
</a>
</g>
</g>
<!-- BaseConfig&#45;&gt;ArrayConfig -->
<g id="edge1" class="edge"><title>BaseConfig&#45;&gt;ArrayConfig</title>
<path fill="none" stroke="black" stroke-width="0.5" d="M38.2563,-148.245C46.0246,-169.985 67.7461,-222.715 104,-250.5 110.411,-255.413 118.145,-258.989 125.909,-261.591"/>
<polygon fill="black" stroke="black" stroke-width="0.5" points="125.441,-263.278 130.735,-263.088 126.478,-259.935 125.441,-263.278"/>
</g>
<!-- ArrayTriggerConfig -->
<g id="node3" class="node"><title>ArrayTriggerConfig</title>
<g id="a_node3"><a xlink:href="../api/ctapipe.instrument.obsconfig.ArrayTriggerConfig.html#ctapipe.instrument.obsconfig.ArrayTriggerConfig" xlink:title="Contains trigger info for a given run_type">
<polygon fill="none" stroke="black" stroke-width="0.5" points="216,-241 115,-241 115,-222 216,-222 216,-241"/>
<text text-anchor="middle" x="165.5" y="-229" font-family="Vera Sans, DejaVu Sans, Liberation Sans, Arial, Helvetica, sans" font-size="10.00">ArrayTriggerConfig</text>
</a>
</g>
</g>
<!-- BaseConfig&#45;&gt;ArrayTriggerConfig -->
<g id="edge2" class="edge"><title>BaseConfig&#45;&gt;ArrayTriggerConfig</title>
<path fill="none" stroke="black" stroke-width="0.5" d="M41.2192,-148.09C52.0537,-164.036 75.9346,-195.978 104,-213.5 107.959,-215.972 112.276,-218.12 116.721,-219.982"/>
<polygon fill="black" stroke="black" stroke-width="0.5" points="116.291,-221.694 121.585,-221.894 117.572,-218.436 116.291,-221.694"/>
</g>
<!-- CameraConfig -->
<g id="node4" class="node"><title>CameraConfig</title>
<g id="a_node4"><a xlink:href="../api/ctapipe.instrument.obsconfig.CameraConfig.html#ctapipe.instrument.obsconfig.CameraConfig" xlink:title="Definition of a Camera, including its pixel geometry and other">
<polygon fill="none" stroke="black" stroke-width="0.5" points="206,-204 125,-204 125,-185 206,-185 206,-204"/>
<text text-anchor="middle" x="165.5" y="-192" font-family="Vera Sans, DejaVu Sans, Liberation Sans, Arial, Helvetica, sans" font-size="10.00">CameraConfig</text>
</a>
</g>
</g>
<!-- BaseConfig&#45;&gt;CameraConfig -->
<g id="edge3" class="edge"><title>BaseConfig&#45;&gt;CameraConfig</title>
<path fill="none" stroke="black" stroke-width="0.5" d="M50.1472,-148.082C63.8215,-156.428 84.6978,-168.423 104,-176.5 110.042,-179.028 116.56,-181.357 123.003,-183.441"/>
<polygon fill="black" stroke="black" stroke-width="0.5" points="122.611,-185.153 127.906,-184.987 123.664,-181.815 122.611,-185.153"/>
</g>
<!-- ObsConfig -->
<g id="node5" class="node"><title>ObsConfig</title>
<g id="a_node5"><a xlink:href="../api/ctapipe.instrument.obsconfig.ObsConfig.html#ctapipe.instrument.obsconfig.ObsConfig" xlink:title="All configuration information related to an observation run.">
<polygon fill="none" stroke="black" stroke-width="0.5" points="197.5,-167 133.5,-167 133.5,-148 197.5,-148 197.5,-167"/>
<text text-anchor="middle" x="165.5" y="-155" font-family="Vera Sans, DejaVu Sans, Liberation Sans, Arial, Helvetica, sans" font-size="10.00">ObsConfig</text>
</a>
</g>
</g>
<!-- BaseConfig&#45;&gt;ObsConfig -->
<g id="edge4" class="edge"><title>BaseConfig&#45;&gt;ObsConfig</title>
<path fill="none" stroke="black" stroke-width="0.5" d="M68.0134,-143.344C86.3706,-146.037 109.249,-149.394 128.12,-152.162"/>
<polygon fill="black" stroke="black" stroke-width="0.5" points="128.129,-153.932 133.33,-152.927 128.637,-150.469 128.129,-153.932"/>
</g>
<!-- OpticsConfig -->
<g id="node6" class="node"><title>OpticsConfig</title>
<g id="a_node6"><a xlink:href="../api/ctapipe.instrument.obsconfig.OpticsConfig.html#ctapipe.instrument.obsconfig.OpticsConfig" xlink:title="Definition of Telescope Optics, including information on the">
<polygon fill="none" stroke="black" stroke-width="0.5" points="202.5,-130 128.5,-130 128.5,-111 202.5,-111 202.5,-130"/>
<text text-anchor="middle" x="165.5" y="-118" font-family="Vera Sans, DejaVu Sans, Liberation Sans, Arial, Helvetica, sans" font-size="10.00">OpticsConfig</text>
</a>
</g>
</g>
<!-- BaseConfig&#45;&gt;OpticsConfig -->
<g id="edge5" class="edge"><title>BaseConfig&#45;&gt;OpticsConfig</title>
<path fill="none" stroke="black" stroke-width="0.5" d="M68.0134,-133.911C84.8636,-131.569 105.523,-128.698 123.397,-126.213"/>
<polygon fill="black" stroke="black" stroke-width="0.5" points="123.647,-127.945 128.358,-125.524 123.165,-124.479 123.647,-127.945"/>
</g>
<!-- SubarrayConfig -->
<g id="node8" class="node"><title>SubarrayConfig</title>
<g id="a_node8"><a xlink:href="../api/ctapipe.instrument.obsconfig.SubarrayConfig.html#ctapipe.instrument.obsconfig.SubarrayConfig" xlink:title="Description of a particular Subarray used during an observation or">
<polygon fill="none" stroke="black" stroke-width="0.5" points="208.5,-93 122.5,-93 122.5,-74 208.5,-74 208.5,-93"/>
<text text-anchor="middle" x="165.5" y="-81" font-family="Vera Sans, DejaVu Sans, Liberation Sans, Arial, Helvetica, sans" font-size="10.00">SubarrayConfig</text>
</a>
</g>
</g>
<!-- BaseConfig&#45;&gt;SubarrayConfig -->
<g id="edge7" class="edge"><title>BaseConfig&#45;&gt;SubarrayConfig</title>
<path fill="none" stroke="black" stroke-width="0.5" d="M51.3375,-128.927C65.0766,-121.134 85.3994,-110.202 104,-102.5 110.86,-99.6596 118.303,-96.9971 125.548,-94.616"/>
<polygon fill="black" stroke="black" stroke-width="0.5" points="126.299,-96.2127 130.522,-93.0138 125.226,-92.8812 126.299,-96.2127"/>
</g>
<!-- TelescopeConfig -->
<g id="node9" class="node"><title>TelescopeConfig</title>
<g id="a_node9"><a xlink:href="../api/ctapipe.instrument.obsconfig.TelescopeConfig.html#ctapipe.instrument.obsconfig.TelescopeConfig" xlink:title="Configuration of a single Telescope, including it&#39;s optics and">
<polygon fill="none" stroke="black" stroke-width="0.5" points="211.5,-56 119.5,-56 119.5,-37 211.5,-37 211.5,-56"/>
<text text-anchor="middle" x="165.5" y="-44" font-family="Vera Sans, DejaVu Sans, Liberation Sans, Arial, Helvetica, sans" font-size="10.00">TelescopeConfig</text>
</a>
</g>
</g>
<!-- BaseConfig&#45;&gt;TelescopeConfig -->
<g id="edge8" class="edge"><title>BaseConfig&#45;&gt;TelescopeConfig</title>
<path fill="none" stroke="black" stroke-width="0.5" d="M41.4872,-128.969C52.536,-113.443 76.4994,-82.7004 104,-65.5 108.645,-62.5947 113.77,-60.101 119.014,-57.9685"/>
<polygon fill="black" stroke="black" stroke-width="0.5" points="119.812,-59.5367 123.852,-56.1103 118.557,-56.2694 119.812,-59.5367"/>
</g>
<!-- TelescopeTriggerConfig -->
<g id="node10" class="node"><title>TelescopeTriggerConfig</title>
<g id="a_node10"><a xlink:href="../api/ctapipe.instrument.obsconfig.TelescopeTriggerConfig.html#ctapipe.instrument.obsconfig.TelescopeTriggerConfig" xlink:title="Contains trigger info for a given run_type">
<polygon fill="none" stroke="black" stroke-width="0.5" points="227,-19 104,-19 104,-0 227,-0 227,-19"/>
<text text-anchor="middle" x="165.5" y="-7" font-family="Vera Sans, DejaVu Sans, Liberation Sans, Arial, Helvetica, sans" font-size="10.00">TelescopeTriggerConfig</text>
</a>
</g>
</g>
<!-- BaseConfig&#45;&gt;TelescopeTriggerConfig -->
<g id="edge9" class="edge"><title>BaseConfig&#45;&gt;TelescopeTriggerConfig</title>
<path fill="none" stroke="black" stroke-width="0.5" d="M38.3374,-128.967C46.2718,-107.693 68.3109,-56.0518 104,-28.5 107.712,-25.6345 111.863,-23.1965 116.205,-21.1232"/>
<polygon fill="black" stroke="black" stroke-width="0.5" points="117.114,-22.635 120.98,-19.0135 115.699,-19.4336 117.114,-22.635"/>
</g>
<!-- SimObsConfig -->
<g id="node7" class="node"><title>SimObsConfig</title>
<g id="a_node7"><a xlink:href="../api/ctapipe.instrument.obsconfig.SimObsConfig.html#ctapipe.instrument.obsconfig.SimObsConfig" xlink:title="ObsConfig from a simulation run.">
<polygon fill="none" stroke="black" stroke-width="0.5" points="344,-167 263,-167 263,-148 344,-148 344,-167"/>
<text text-anchor="middle" x="303.5" y="-155" font-family="Vera Sans, DejaVu Sans, Liberation Sans, Arial, Helvetica, sans" font-size="10.00">SimObsConfig</text>
</a>
</g>
</g>
<!-- ObsConfig&#45;&gt;SimObsConfig -->
<g id="edge6" class="edge"><title>ObsConfig&#45;&gt;SimObsConfig</title>
<path fill="none" stroke="black" stroke-width="0.5" d="M197.701,-157.5C215.482,-157.5 238.067,-157.5 257.714,-157.5"/>
<polygon fill="black" stroke="black" stroke-width="0.5" points="257.906,-159.25 262.905,-157.5 257.905,-155.75 257.906,-159.25"/>
</g>
</g>
</svg>
